<?xml version="1.0" standalone="no"?>
<!DOCTYPE svg PUBLIC "-//W3C//DTD SVG 20010904//EN"
 "http://www.w3.org/TR/2001/REC-SVG-20010904/DTD/svg10.dtd">
<svg version="1.0" xmlns="http://www.w3.org/2000/svg"
 width="912.000000pt" height="912.000000pt" viewBox="0 0 912.000000 912.000000"
 preserveAspectRatio="xMidYMid meet">
<metadata>
Created by potrace 1.14, written by Peter Selinger 2001-2017
</metadata>
<g transform="translate(0.000000,912.000000) scale(0.100000,-0.100000)"
fill="#000000" stroke="none">
<path d="M4605 9099 c-38 -19 -65 -34 -160 -89 -22 -12 -60 -34 -85 -48 -25
-14 -57 -33 -72 -43 -14 -11 -29 -19 -33 -19 -3 0 -31 -16 -61 -35 -30 -19
-56 -35 -58 -35 -3 0 -41 -22 -86 -50 -45 -27 -83 -50 -85 -50 -4 0 -76 -44
-119 -72 -87 -58 -70 -126 45 -186 24 -12 51 -27 59 -32 24 -15 121 -70 177
-101 79 -43 98 -54 103 -59 3 -3 21 -14 40 -25 19 -10 53 -29 75 -42 22 -12
58 -32 80 -44 22 -12 43 -26 46 -31 3 -5 9 -9 13 -9 3 1 16 -5 29 -13 17 -11
324 -187 447 -257 14 -8 32 -19 40 -26 8 -6 17 -11 20 -10 3 0 16 -6 30 -15
43 -26 232 -134 295 -169 33 -17 72 -40 87 -51 14 -10 28 -18 31 -18 2 0 44
-23 93 -51 49 -29 109 -63 134 -77 25 -14 62 -36 82 -49 21 -12 42 -23 47 -23
5 0 14 -7 21 -15 7 -8 21 -15 30 -15 10 0 20 -4 22 -8 2 -5 24 -21 51 -35 109
-62 144 -81 172 -99 17 -10 37 -21 45 -25 8 -3 17 -9 20 -13 3 -3 21 -14 40
-23 19 -10 42 -22 50 -27 25 -15 133 -77 173 -99 20 -12 53 -30 72 -41 19 -11
52 -30 73 -41 20 -12 100 -58 177 -102 77 -44 156 -89 175 -100 19 -11 60 -33
90 -50 30 -16 62 -36 71 -43 8 -8 19 -14 23 -14 18 0 315 -178 348 -209 42
-39 77 -105 84 -160 6 -42 5 -34 3 -136 0 -44 0 -84 1 -90 1 -5 2 -14 1 -20
-5 -27 -1 -267 4 -275 4 -6 2 -10 -3 -10 -8 0 -7 -72 2 -96 2 -6 1 -17 -4 -24
-4 -7 -4 -25 0 -41 5 -15 6 -30 3 -33 -7 -7 -5 -265 2 -276 4 -6 2 -10 -3 -10
-8 0 -7 -72 2 -96 2 -6 1 -17 -4 -24 -4 -7 -4 -26 0 -41 5 -17 5 -31 -1 -35
-5 -3 -7 -9 -4 -14 3 -4 5 -51 6 -104 1 -68 -3 -102 -13 -113 -7 -9 -12 -19
-12 -22 4 -19 -23 -50 -71 -84 -29 -20 -57 -37 -62 -37 -5 0 -14 -5 -21 -12
-7 -7 -36 -26 -66 -43 -69 -39 -297 -174 -344 -203 -92 -57 -136 -69 -161 -44
-14 13 -16 96 -18 661 -2 762 -3 777 -44 858 -21 41 -85 113 -100 113 -4 0
-14 6 -21 13 -13 12 -81 51 -125 72 -13 5 -23 13 -23 18 0 4 -5 7 -11 7 -6 0
-55 27 -110 60 -54 33 -101 60 -105 60 -3 0 -18 8 -32 19 -15 10 -43 28 -62
39 -19 10 -75 43 -125 72 -116 68 -150 87 -205 118 -25 13 -49 28 -55 32 -5 4
-30 19 -55 32 -25 14 -63 35 -85 48 -22 13 -60 34 -85 48 -25 14 -76 42 -113
63 -38 22 -71 39 -75 39 -3 0 -13 6 -21 14 -9 8 -38 26 -66 41 -27 14 -66 36
-85 47 -19 11 -64 36 -100 56 -85 47 -161 90 -180 102 -8 6 -26 16 -40 22 -14
7 -53 29 -88 50 -34 21 -64 38 -66 38 -3 0 -43 23 -91 50 -48 28 -91 50 -96
50 -5 0 -9 5 -9 10 0 6 -4 10 -9 10 -12 0 -174 92 -182 103 -3 5 -8 7 -10 6
-2 -2 -35 16 -74 38 -38 23 -87 49 -107 59 -21 10 -38 21 -38 26 0 4 -6 8 -14
8 -7 0 -25 9 -40 21 -14 11 -26 17 -26 13 0 -4 -8 0 -17 8 -10 8 -38 26 -63
39 -25 13 -48 29 -52 34 -4 6 -8 6 -8 1 0 -5 -8 -2 -17 6 -10 8 -94 59 -188
112 -93 53 -177 101 -185 106 -25 15 -242 143 -285 167 -119 68 -284 125 -293
101 -2 -4 -8 -6 -13 -2 -20 12 -128 -20 -204 -60 -44 -24 -163 -91 -265 -150
-102 -60 -203 -118 -225 -130 -22 -11 -41 -24 -43 -28 -2 -5 -7 -8 -12 -8 -5
0 -43 -20 -84 -45 -42 -25 -79 -45 -81 -45 -3 0 -29 -16 -59 -35 -30 -19 -58
-35 -61 -35 -3 0 -40 -21 -83 -46 -87 -51 -101 -59 -157 -90 -22 -12 -88 -49
-146 -83 -58 -33 -111 -61 -118 -61 -6 0 -11 -4 -11 -8 0 -5 -30 -24 -66 -43
-36 -19 -77 -41 -92 -49 -24 -14 -186 -105 -269 -152 -18 -10 -48 -26 -65 -36
-18 -10 -63 -35 -99 -55 -63 -35 -139 -104 -139 -127 0 -5 -4 -10 -10 -10 -5
0 -10 -6 -10 -12 0 -7 -7 -26 -15 -42 -13 -25 -15 -284 -14 -2145 0 -1640 3
-2126 12 -2157 34 -109 88 -166 221 -235 44 -23 97 -52 116 -64 19 -12 60 -35
90 -52 57 -31 154 -87 180 -104 49 -31 172 -94 215 -109 69 -24 101 -12 117
43 9 32 12 522 14 2027 1 1092 5 2014 8 2050 18 232 87 319 368 470 253 136
320 159 354 126 49 -50 59 -287 29 -721 -4 -55 -4 -114 -2 -977 1 -329 6 -598
10 -598 5 0 5 -6 1 -12 -12 -18 -4 -946 12 -1388 17 -497 22 -974 13 -1295 -4
-128 11 -225 33 -225 5 0 6 -5 3 -10 -8 -13 96 -116 125 -125 12 -4 56 -27 98
-52 91 -54 138 -81 212 -119 30 -16 57 -31 60 -34 3 -3 16 -11 29 -18 69 -39
105 -60 194 -111 110 -63 146 -83 232 -131 33 -18 72 -41 87 -51 14 -11 28
-19 31 -19 2 0 65 -35 139 -78 74 -43 141 -81 149 -85 8 -4 21 -11 29 -17 8
-5 94 -55 190 -110 96 -55 182 -105 190 -110 8 -6 22 -13 30 -17 8 -4 17 -9
20 -12 3 -3 21 -14 40 -24 19 -9 51 -27 70 -38 64 -38 284 -164 314 -179 35
-18 140 -18 161 0 8 7 15 9 15 4 0 -5 4 -4 8 1 6 9 55 39 243 145 14 8 53 30
85 48 33 18 73 41 89 50 17 10 57 33 90 51 33 18 65 36 70 41 6 4 31 19 57 33
26 14 125 71 220 125 95 55 191 109 213 121 22 12 63 35 90 52 28 16 59 34 70
40 11 5 29 15 40 22 31 18 174 101 225 129 37 21 192 109 515 294 22 12 108
61 190 108 83 46 155 88 160 93 6 4 30 18 54 31 64 33 105 56 111 63 3 3 30
18 60 33 30 16 57 31 60 35 3 3 19 13 35 22 17 8 39 21 50 27 11 6 65 37 120
68 126 72 137 78 270 154 61 34 130 74 155 88 25 13 90 51 145 83 55 31 129
73 165 93 63 34 150 109 150 130 0 6 6 22 13 36 16 31 21 144 20 535 -1 344
-5 381 -54 416 -39 27 -88 22 -167 -19 -109 -56 -147 -77 -152 -82 -3 -3 -25
-15 -50 -28 -106 -55 -165 -87 -170 -93 -3 -3 -20 -11 -37 -18 -18 -8 -33 -17
-33 -22 0 -5 -5 -9 -11 -9 -6 0 -59 -28 -117 -62 -59 -33 -127 -72 -152 -86
-25 -14 -86 -49 -137 -78 -50 -30 -94 -54 -98 -54 -4 0 -19 -8 -33 -19 -15
-10 -47 -29 -72 -43 -25 -14 -61 -34 -80 -45 -139 -80 -181 -103 -190 -103 -5
0 -10 -4 -10 -8 0 -5 -30 -24 -66 -43 -85 -44 -108 -57 -172 -97 -29 -17 -54
-32 -57 -32 -2 0 -52 -28 -112 -63 -59 -35 -115 -66 -123 -70 -8 -4 -31 -17
-50 -28 -86 -52 -311 -179 -316 -179 -4 0 -26 -13 -51 -30 -24 -16 -46 -30
-48 -30 -2 0 -41 -22 -87 -48 -46 -26 -90 -51 -98 -55 -8 -4 -28 -15 -45 -26
-16 -10 -48 -28 -70 -41 -22 -12 -101 -57 -175 -99 -74 -43 -142 -81 -150 -84
-8 -4 -28 -16 -45 -27 -64 -41 -205 -108 -222 -105 -10 2 -23 4 -30 4 -22 2
-27 47 -30 276 -1 127 -3 255 -4 285 -1 30 2 71 6 90 4 19 8 40 9 45 1 6 13
33 26 60 35 72 134 169 225 221 68 39 449 252 495 277 30 16 60 33 65 37 6 4
37 22 70 40 33 18 76 42 95 53 19 11 55 31 80 45 25 14 122 69 215 122 94 54
188 107 210 119 22 11 67 37 100 56 33 20 76 43 95 53 19 9 37 20 40 23 3 3
34 22 70 41 36 19 118 65 182 102 65 37 120 66 124 66 4 -1 10 3 13 8 3 5 44
30 91 56 47 26 92 51 100 56 29 19 262 150 265 150 2 0 28 14 57 31 121 72
350 199 359 199 4 0 9 3 11 8 2 4 21 16 43 28 45 24 121 66 180 101 22 13 59
33 83 44 47 24 152 124 152 145 0 8 4 14 9 14 5 0 18 30 29 68 20 66 20 83 19
1302 l-2 1235 -34 65 c-18 36 -50 81 -71 100 -37 34 -180 120 -200 120 -6 0
-10 5 -10 10 0 6 -4 10 -9 10 -5 0 -101 51 -213 114 -286 160 -296 166 -350
197 -27 16 -51 29 -54 29 -3 0 -30 16 -60 35 -30 19 -61 35 -68 35 -8 0 -16 4
-18 8 -1 5 -34 26 -73 47 -38 21 -72 41 -75 44 -3 3 -21 14 -40 23 -19 9 -46
24 -60 32 -49 30 -302 176 -305 176 -2 0 -58 32 -126 71 -68 40 -140 81 -159
91 -162 91 -286 164 -288 170 -2 5 -8 8 -13 8 -5 0 -80 41 -167 91 -144 84
-192 112 -277 159 -39 22 -136 78 -155 90 -15 10 -83 48 -161 92 -24 14 -87
50 -139 80 -52 30 -116 66 -141 80 -80 45 -94 53 -99 58 -3 3 -18 12 -35 20
-16 8 -58 31 -91 52 -34 20 -89 51 -123 68 -33 18 -61 37 -61 43 0 6 -3 7 -7
4 -3 -4 -11 -3 -17 2 -6 5 -33 21 -61 36 -67 35 -138 41 -190 14z m-1130
-2399 c66 -32 320 -175 375 -210 8 -6 31 -18 50 -28 19 -9 37 -20 38 -24 2 -5
7 -8 12 -8 8 0 276 -155 296 -171 6 -5 13 -7 16 -4 3 3 11 -1 18 -10 7 -8 18
-15 25 -15 8 0 15 -3 17 -7 2 -5 21 -17 43 -28 22 -11 42 -22 45 -25 3 -4 57
-35 120 -70 63 -35 117 -66 120 -70 3 -3 24 -14 47 -25 24 -11 43 -23 43 -27
0 -5 4 -8 9 -8 6 0 60 -29 121 -65 61 -36 130 -76 154 -89 81 -45 91 -51 96
-56 3 -3 16 -11 30 -17 27 -14 72 -39 165 -94 33 -19 67 -38 75 -42 8 -4 29
-16 45 -27 17 -11 39 -24 50 -30 11 -5 47 -26 80 -45 33 -20 74 -42 91 -50 47
-21 103 -80 127 -133 21 -46 21 -56 22 -756 0 -664 -1 -712 -18 -758 -24 -62
-127 -168 -164 -168 -7 0 -13 -4 -13 -9 0 -5 -12 -14 -27 -20 -16 -6 -46 -22
-68 -35 -22 -14 -56 -33 -75 -44 -43 -24 -81 -45 -191 -109 -48 -27 -93 -53
-100 -57 -8 -3 -41 -22 -74 -42 -33 -19 -72 -40 -87 -47 -16 -6 -28 -15 -28
-19 0 -4 -6 -8 -14 -8 -7 0 -25 -9 -40 -21 -15 -11 -33 -22 -40 -23 -8 -1 -20
-7 -27 -13 -12 -9 -267 -154 -384 -218 -22 -12 -71 -39 -110 -60 -38 -21 -87
-47 -107 -59 -21 -11 -38 -23 -38 -28 0 -4 -4 -8 -10 -8 -19 0 -56 -46 -87
-110 -15 -31 -17 -89 -19 -575 -1 -297 -4 -553 -8 -569 -8 -42 -39 -69 -75
-68 -17 0 -70 22 -118 48 -49 25 -122 65 -163 87 -167 89 -249 144 -314 212
-33 34 -89 146 -92 185 -1 14 -7 57 -12 95 -14 98 -15 4498 -1 4551 13 47 44
77 73 69 12 -4 57 -24 101 -45z"/>
<path d="M4130 5387 c-14 -7 -30 -27 -36 -47 -14 -42 -16 -1508 -2 -1557 21
-75 73 -76 202 -5 44 24 104 57 131 72 28 15 131 69 230 120 99 51 203 109
231 131 80 59 142 143 161 219 10 37 11 159 1 205 -5 28 -9 68 -8 90 6 158 6
193 -2 220 -14 47 -40 88 -67 110 -34 27 -131 85 -142 85 -5 0 -9 5 -9 10 0 6
-5 10 -10 10 -6 0 -27 11 -48 23 -35 23 -66 41 -177 103 -27 15 -53 33 -57 38
-4 6 -8 7 -8 2 0 -5 -7 -3 -15 4 -20 17 -95 59 -117 67 -10 3 -18 9 -18 13 0
4 -11 11 -24 14 -14 3 -31 12 -38 19 -20 18 -100 57 -128 62 -14 2 -36 -1 -50
-8z"/>
</g>
</svg>
